PathFileType	4	(X/Y/Z)	./resultDataOpenSim/trcMotMarkerGrf/sub06/qtm-02-08.trc
DataRate	CameraRate	NumFrames	NumMarkers	Units	OrigDataRate	OrigDataStartFrame	OrigNumFrames
250.000000	250.000000	9	24	m	250.000000	123	489
Frame#	Time	L.Toe.Tip			R.Toe.Tip			L.Ankle.Lat			R.Ankle.Lat			L.Ankle.Med			R.Ankle.Med			L.Heel			R.Heel			L.Knee.Lat			R.Knee.Lat			L.Knee.Med			R.Knee.Med			L.Thigh.Upper			R.Thigh.Upper			L.ASIS			R.ASIS			V.Sacral			L.Acromium			R.Acromium			C7			L.Elbow			R.Elbow			L.Wrist.Lat			R.Wrist.Lat
		X1	Y1	Z1	X2	Y2	Z2	X3	Y3	Z3	X4	Y4	Z4	X5	Y5	Z5	X6	Y6	Z6	X7	Y7	Z7	X8	Y8	Z8	X9	Y9	Z9	X10	Y10	Z10	X11	Y11	Z11	X12	Y12	Z12	X13	Y13	Z13	X14	Y14	Z14	X15	Y15	Z15	X16	Y16	Z16	X17	Y17	Z17	X18	Y18	Z18	X19	Y19	Z19	X20	Y20	Z20	X21	Y21	Z21	X22	Y22	Z22	X23	Y23	Z23	X24	Y24	Z24

123	0.488	-0.21631252	0.083800537	-0.053470014	-0.74531977	0.035671182	0.11036148	-0.34468887	0.087099245	-0.063680551	-0.87680521	0.075018582	0.12646342	-0.33778911	0.10694445	0.020209829	-0.84907155	0.094649188	0.042689895	-0.40182138	0.041951428	-0.0051287184	-0.93191573	0.060321772	0.061771285	-0.38880903	0.45862793	-0.080989817	-0.71845404	0.43349639	0.16473239	-0.39853322	0.45158097	0.042932195	-0.74096422	0.43389662	0.032931043	-0.57627404	0.80563294	-0.11987738	-0.63508579	0.79038201	0.22550021	-0.5146402	0.84615128	-0.065255332	-0.52399723	0.83660915	0.18217035	-0.7043838	0.9206257	0.057413871	-0.5754954	1.3240732	-0.12857368	-0.5541679	1.3158156	0.23212639	-0.63964094	1.3609584	0.055299305	-0.67454452	1.0244498	-0.17749447	-0.61427583	1.0048916	0.32541843	-0.56725454	0.8067943	-0.22096241	-0.39419608	0.88383617	0.31248109
124	0.492	-0.19968862	0.086201474	-0.052454921	-0.74524594	0.035616456	0.11034825	-0.32814148	0.087312623	-0.063289429	-0.87632741	0.075677307	0.12637154	-0.3221623	0.10706501	0.020482911	-0.84841431	0.095054766	0.042589482	-0.38494453	0.041044411	-0.0049237396	-0.93144195	0.061335817	0.061678911	-0.38183309	0.45671015	-0.079668197	-0.71463889	0.43278616	0.16468476	-0.39136991	0.4493597	0.044588156	-0.73687102	0.4331726	0.032826387	-0.56918518	0.80345324	-0.11990653	-0.63020523	0.78901067	0.22529449	-0.50769387	0.84406316	-0.065271657	-0.51766172	0.83478581	0.18242657	-0.69691909	0.91879381	0.057521892	-0.56947033	1.3221127	-0.12862877	-0.54783304	1.3139243	0.23216449	-0.63345042	1.3592482	0.055368168	-0.6691845	1.0227688	-0.17712865	-0.60642446	1.0028308	0.32594254	-0.56313884	0.80462058	-0.22147518	-0.38530125	0.88366301	0.31177995
125	0.496	-0.18353452	0.088734586	-0.051428324	-0.74518716	0.035560444	0.11033882	-0.31202016	0.087713208	-0.062902113	-0.87584618	0.076362313	0.12630521	-0.30695597	0.10734168	0.020804093	-0.84772936	0.095495031	0.042509879	-0.36841707	0.040297678	-0.0048340214	-0.93094367	0.062371961	0.06163722	-0.37486631	0.45475278	-0.078321657	-0.71074611	0.43202519	0.16464391	-0.38427907	0.44710177	0.046207449	-0.73272344	0.43245132	0.03272012	-0.56212555	0.8012277	-0.11996809	-0.62488178	0.78744625	0.22504974	-0.50073055	0.84194704	-0.065294093	-0.51131174	0.83294704	0.18273766	-0.68913093	0.91673106	0.056786143	-0.56342271	1.3201341	-0.12869958	-0.54151211	1.3120057	0.23218841	-0.62729336	1.3575172	0.055436657	-0.663582	1.0210069	-0.17657029	-0.59860802	1.0007583	0.3264491	-0.55893312	0.80244777	-0.22198353	-0.37648239	0.88341376	0.31115185
126	0.5	-0.16791687	0.091364431	-0.050360503	-0.74513997	0.035500184	0.1103356	-0.29644994	0.088239041	-0.062526448	-0.87535929	0.077076017	0.12627099	-0.29222905	0.10771881	0.021196113	-0.84699977	0.095962655	0.042444531	-0.35228205	0.03968971	-0.0047558708	-0.93045702	0.063452908	0.061631932	-0.36784602	0.45277323	-0.076928973	-0.70677538	0.43121174	0.16461005	-0.37728421	0.4448502	0.047746938	-0.72850821	0.43172586	0.032605186	-0.55501956	0.79896979	-0.12003546	-0.6184479	0.78564852	0.22462731	-0.49371326	0.83981086	-0.065331767	-0.50488922	0.83110141	0.18304235	-0.68109102	0.91448237	0.055313457	-0.55734367	1.3181423	-0.12878337	-0.5351711	1.310089	0.23219379	-0.62118051	1.35578	0.055497852	-0.65775042	1.0191718	-0.17607633	-0.59078831	0.99867698	0.32693141	-0.55460808	0.80028891	-0.22246318	-0.36771572	0.88308677	0.31060344
127	0.504	-0.15288143	0.094044622	-0.049226094	-0.74510266	0.035435676	0.11034016	-0.2814556	0.088852045	-0.0621184	-0.87485633	0.077829613	0.12627943	-0.27803113	0.10814047	0.021665401	-0.84623811	0.096460539	0.04240449	-0.3365987	0.039118008	-0.0047467036	-0.92998854	0.06460131	0.061649477	-0.36066455	0.45081179	-0.07546977	-0.70271984	0.43035823	0.16458811	-0.37033356	0.44265691	0.049237257	-0.7242015	0.43098336	0.032481613	-0.54787244	0.7966884	-0.12010895	-0.61100129	0.78368347	0.22411734	-0.48661023	0.83766753	-0.065389444	-0.49837606	0.82925563	0.18328176	-0.67297956	0.9121561	0.05340821	-0.55123036	1.3161494	-0.12888042	-0.52879323	1.3081864	0.23218238	-0.61501762	1.3540116	0.055519629	-0.65170391	1.017264	-0.17573961	-0.58293343	0.99658899	0.32738277	-0.55016676	0.7981292	-0.22289166	-0.35895071	0.88266949	0.31007559
128	0.508	-0.13844309	0.096732819	-0.048014073	-0.74507327	0.035371579	0.11035465	-0.26700938	0.08951913	-0.061617239	-0.8743285	0.078630053	0.12633958	-0.26438657	0.10856603	0.022214516	-0.84552103	0.096998052	0.04242437	-0.32140897	0.038452035	-0.0049893069	-0.92952819	0.065832649	0.061699545	-0.3533122	0.44890628	-0.073966357	-0.69857065	0.42947179	0.164579	-0.36337788	0.44056691	0.050715866	-0.71979493	0.43022386	0.032351185	-0.54070036	0.79439301	-0.12019175	-0.60344513	0.78172369	0.22372604	-0.47940866	0.8355308	-0.06545822	-0.49180096	0.82741127	0.1834595	-0.6650424	0.90987874	0.051422532	-0.54508556	1.3141579	-0.12899142	-0.52238521	1.3062888	0.23215703	-0.6086711	1.3521717	0.055464276	-0.64557801	1.0153243	-0.17548428	-0.57503051	0.99450072	0.32779605	-0.54567333	0.79593792	-0.22328867	-0.35022442	0.88216818	0.3095556
129	0.512	-0.12460259	0.09938031	-0.046734774	-0.74504135	0.035317648	0.11038146	-0.2530956	0.090185169	-0.060990783	-0.87375881	0.079486945	0.1264599	-0.25129383	0.10896424	0.022861736	-0.8449197	0.097584253	0.042531992	-0.30669445	0.037649647	-0.0055689152	-0.92909089	0.06716887	0.061844414	-0.34592181	0.44706498	-0.072488981	-0.69432086	0.42855539	0.16458209	-0.35641021	0.43861005	0.052189972	-0.71529401	0.42945175	0.032220411	-0.53345258	0.79210862	-0.12027105	-0.59641862	0.77986418	0.22353383	-0.47211564	0.83341084	-0.065522237	-0.48519471	0.82556278	0.18361185	-0.65754796	0.90775157	0.04965833	-0.53891175	1.3121595	-0.12911677	-0.51595764	1.304385	0.23211509	-0.60216128	1.3502593	0.055343224	-0.63953358	1.0134078	-0.17519974	-0.56709628	0.9924198	0.3281618	-0.5411691	0.79372277	-0.22369862	-0.34164207	0.88160361	0.30908302
130	0.516	-0.11135827	0.10191226	-0.045406712	-0.74499199	0.035283556	0.11042399	-0.23974154	0.090785027	-0.060219967	-0.8731321	0.080410725	0.12664795	-0.23873692	0.10930263	0.023662504	-0.84437631	0.098233234	0.042703203	-0.29249104	0.036793946	-0.006230334	-0.92871456	0.068636886	0.062153394	-0.33856309	0.44528987	-0.071092593	-0.68995532	0.42761255	0.16460517	-0.34944766	0.43680001	0.053644843	-0.71070093	0.42865981	0.032102631	-0.52603507	0.78987537	-0.12033274	-0.58985863	0.77806426	0.22346426	-0.46474254	0.83131093	-0.065572323	-0.47856758	0.82370639	0.18376178	-0.65071224	0.90579887	0.048273072	-0.53270896	1.3101529	-0.12925863	-0.50952114	1.3024729	0.23205141	-0.59567209	1.3483216	0.055213241	-0.63359565	1.0115317	-0.17486999	-0.5591642	0.99035316	0.32846974	-0.53657201	0.79153842	-0.2241176	-0.33322115	0.88097674	0.30866025
131	0.52	-0.098709643	0.10422838	-0.044039646	-0.74492072	0.035271072	0.11048552	-0.2269855	0.091266429	-0.059282362	-0.8724522	0.081396767	0.12690153	-0.22668319	0.10954766	0.02469953	-0.84375024	0.098963358	0.042879495	-0.27894062	0.035993868	-0.0065150611	-0.92837616	0.070231308	0.062593881	-0.33116621	0.44359716	-0.069779678	-0.6854575	0.42664412	0.16465755	-0.34250771	0.43513542	0.055055058	-0.70600493	0.4278342	0.032011061	-0.51838802	0.78773107	-0.12037292	-0.58345335	0.77624932	0.22341548	-0.45729323	0.8292306	-0.065604022	-0.47191542	0.82184367	0.18391216	-0.64454754	0.90393497	0.047202449	-0.5264795	1.3081515	-0.12942191	-0.50309777	1.3005587	0.23196594	-0.58932292	1.3464002	0.055107767	-0.62767783	1.0096803	-0.17455587	-0.55125917	0.98830628	0.32871802	-0.53180565	0.78940274	-0.22450746	-0.32488795	0.88026977	0.30824904
